<svg width="469" height="418" viewBox="0 0 469 418" fill="none" xmlns="http://www.w3.org/2000/svg">
<g filter="url(#filter0_d_176_168)">
<circle cx="237" cy="191" r="159" fill="#88D2D4"/>
</g>
<g clip-path="url(#clip0_176_168)">
<path d="M350.94 64.4502V160.05H327.02C319.9 160.05 312.95 158.57 306.57 155.78C300.18 152.99 294.36 148.9 289.53 143.69C280.76 134.23 275.89 121.81 275.89 108.92V64.4502H350.95H350.94Z" fill="#323334"/>
<path d="M279.73 68.5801C277.66 87.4401 278.83 107.7 287.44 124.68C290.43 129.92 294.85 134.43 299.83 137.83L296.26 142.65C290.91 138.34 286.38 132.95 283.44 126.73C275.79 108.36 276.15 87.6701 279.74 68.5801H279.73Z" fill="#7B7D7D"/>
<path d="M282.23 59.2402C280.08 78.2102 281.27 98.6602 290.13 115.67C293.2 120.91 297.72 125.4 302.77 128.78L299.24 133.63C293.81 129.35 289.18 123.99 286.14 117.76C278.21 99.3402 278.56 78.4402 282.22 59.2402H282.23Z" fill="#7B7D7D"/>
<path d="M425.12 130.16C434.84 142.62 434.16 141.83 444.34 148.1C452.46 153.11 454.22 155.94 456.18 157.64C459.84 160.81 461.87 168.8 463.01 172.68L465.97 191.38L446.76 187.24L438.64 191.38L421.66 189.67L336.13 191.38V61.5498H379.41V83.1898C379.41 95.1498 384.03 94.7598 393.84 101.59C399.31 105.4 412.19 111.15 414.78 116.05" fill="#323334"/>
<path d="M376.58 351H266.77L288.49 184.13C289.44 180.57 289.52 176.87 290.8 167.88L292.73 154.3C293.95 147.84 293.36 144.34 295.3 137.39C295.86 135.39 296.16 133.31 296.16 131.17V105.66C298.57 112.35 303.15 118.22 309.38 122.31L328.71 133.41L331.91 135.25L333.71 136.27C336.58 137.92 339.85 138.78 343.19 138.78C346.81 138.78 350.28 137.75 353.21 135.93V139.16C353.21 142.15 353.79 145.05 354.87 147.74V147.76C356.14 152.63 355.72 152.11 356.64 157.8C356.84 159.03 356.81 162.53 357.27 164.46L360.17 189.45C361.96 198.2 362.68 212.21 365.31 228.09L376.59 350.98L376.58 351Z" fill="#757777"/>
<mask id="mask0_176_168" style="mask-type:luminance" maskUnits="userSpaceOnUse" x="195" y="135" width="101" height="216">
<path d="M295.61 135.91L266.77 350.99L195.94 349.17L221.29 193.92C226.34 181.07 236.35 170.77 249.05 165.36L282.37 151.15C288.99 148.32 293.79 142.65 295.61 135.91Z" fill="white"/>
</mask>
<g mask="url(#mask0_176_168)">
<path d="M300.09 92.3398H179.3V411.45H300.09V92.3398Z" fill="#8E5F83"/>
</g>
<path d="M329.29 131.21L311.21 120.44C305.38 116.48 301.09 110.78 298.84 104.3C292.25 105.71 284.88 101.28 281.65 93.5695C278.09 85.0395 280.9 75.7395 287.96 72.7895C290.05 71.9095 292.28 71.6895 294.47 72.0395L307.53 82.6595C313.99 87.9195 318.71 95.0095 321.04 103.01L329.28 131.2L329.29 131.21Z" fill="#626464"/>
<path opacity="0.5" d="M376.58 351H333.54L332.63 213.36L357.8 186L376.58 351Z" fill="#101112"/>
<path opacity="0.5" d="M332.63 213.36L333.54 351H266.77L289.24 181.27L332.63 213.36Z" fill="#414243"/>
<path d="M344.18 97.3197C344.18 97.3197 344.15 97.3197 344.13 97.3397C342.7 97.9097 341.05 97.9297 339.53 97.2697C340.19 95.7297 341.42 94.5997 342.87 94.0397C344.96 93.2297 346.25 96.4797 344.18 97.3197Z" fill="#111213"/>
<path d="M363.59 156.36L360.6 171.09C305.24 171.09 299.87 121.94 299.46 107.99C299.39 105.68 299.46 104.33 299.46 104.33C301.71 110.82 306 116.51 311.83 120.47L329.91 131.24L332.9 133.03L334.58 134.02C337.26 135.62 340.32 136.46 343.44 136.46C346.83 136.46 350.07 135.46 352.81 133.7V136.83C352.81 139.72 353.35 142.54 354.37 145.15V145.17C356.16 149.76 359.36 153.7 363.58 156.36H363.59Z" fill="#202122"/>
<path d="M452.29 181.58C451.35 181.58 450.59 180.82 450.59 179.88C450.59 178.94 451.35 178.18 452.29 178.18C453.23 178.18 453.99 178.94 453.99 179.88C453.99 180.82 453.23 181.58 452.29 181.58Z" fill="#88D2D4"/>
<path d="M452.29 174.79C451.35 174.79 450.59 174.03 450.59 173.09C450.59 172.15 451.35 171.39 452.29 171.39C453.23 171.39 453.99 172.15 453.99 173.09C453.99 174.03 453.23 174.79 452.29 174.79Z" fill="#88D2D4"/>
<path d="M445.5 181.58C444.56 181.58 443.8 180.82 443.8 179.88C443.8 178.94 444.56 178.18 445.5 178.18C446.44 178.18 447.2 178.94 447.2 179.88C447.2 180.82 446.44 181.58 445.5 181.58Z" fill="#88D2D4"/>
<path d="M445.5 174.79C444.56 174.79 443.8 174.03 443.8 173.09C443.8 172.15 444.56 171.39 445.5 171.39C446.44 171.39 447.2 172.15 447.2 173.09C447.2 174.03 446.44 174.79 445.5 174.79Z" fill="#88D2D4"/>
<path d="M438.7 181.58C437.76 181.58 437 180.82 437 179.88C437 178.94 437.76 178.18 438.7 178.18C439.64 178.18 440.4 178.94 440.4 179.88C440.4 180.82 439.64 181.58 438.7 181.58Z" fill="#88D2D4"/>
<path d="M438.7 174.79C437.76 174.79 437 174.03 437 173.09C437 172.15 437.76 171.39 438.7 171.39C439.64 171.39 440.4 172.15 440.4 173.09C440.4 174.03 439.64 174.79 438.7 174.79Z" fill="#88D2D4"/>
<path d="M431.91 181.58C430.97 181.58 430.21 180.82 430.21 179.88C430.21 178.94 430.97 178.18 431.91 178.18C432.85 178.18 433.61 178.94 433.61 179.88C433.61 180.82 432.85 181.58 431.91 181.58Z" fill="#88D2D4"/>
<path d="M431.91 174.79C430.97 174.79 430.21 174.03 430.21 173.09C430.21 172.15 430.97 171.39 431.91 171.39C432.85 171.39 433.61 172.15 433.61 173.09C433.61 174.03 432.85 174.79 431.91 174.79Z" fill="#88D2D4"/>
<path d="M425.12 181.58C424.18 181.58 423.42 180.82 423.42 179.88C423.42 178.94 424.18 178.18 425.12 178.18C426.06 178.18 426.82 178.94 426.82 179.88C426.82 180.82 426.06 181.58 425.12 181.58Z" fill="#88D2D4"/>
<path d="M425.12 174.79C424.18 174.79 423.42 174.03 423.42 173.09C423.42 172.15 424.18 171.39 425.12 171.39C426.06 171.39 426.82 172.15 426.82 173.09C426.82 174.03 426.06 174.79 425.12 174.79Z" fill="#88D2D4"/>
<path d="M372.04 93.3198C381.18 100.64 389.66 108.73 397.16 117.72C400.94 122.21 403.81 126.97 408.17 130.76C416.31 137.71 432.16 147.53 441.05 153.84L421.18 142.14C414.55 138.12 407.49 134.47 402.06 128.79C396.92 123.07 392 117.33 386.22 112.25C380.61 107.15 374.65 102.45 368.45 98.1098L372.04 93.2998V93.3198Z" fill="#7B7D7D"/>
<path d="M366.57 108.81C374.64 115.54 382.09 122.95 388.65 131.15C391.97 135.24 394.43 139.53 398.24 143.03C405.37 149.41 419.42 158.46 427.25 164.26L409.58 153.59C403.67 149.92 397.39 146.56 392.6 141.38C387.99 136.08 383.77 131.07 378.62 126.41C373.66 121.79 368.39 117.52 362.9 113.58L366.57 108.83V108.81Z" fill="#7B7D7D"/>
<path d="M358.86 125.46C360.42 129.4 362.45 133.15 365.09 136.44C369.98 142.3 376.53 146.73 382.77 151.07C387.75 154.22 390.11 160.22 390.34 165.89C389.49 160.52 386.82 155.13 381.79 152.67L378.82 151.09C374.83 148.92 370.96 146.57 367.21 143.97C361.34 139.99 356.71 134.22 353.42 127.97L358.86 125.45V125.46Z" fill="#7B7D7D"/>
<path d="M376.663 75.7964C381.635 48.19 363.286 21.7799 335.68 16.8078C308.074 11.8356 281.663 30.1843 276.691 57.7906C271.719 85.397 290.068 111.807 317.674 116.779C345.281 121.751 371.691 103.403 376.663 75.7964Z" fill="#323334"/>
<path d="M372.09 88.7902V90.8202C372.09 94.3202 371.4 97.7802 370.06 101.02L357.68 130.84C356.33 134.07 354.09 136.74 351.3 138.61C351.21 138.67 351.14 138.72 351.05 138.77C348.31 140.53 345.07 141.53 341.68 141.53C338.56 141.53 335.5 140.69 332.82 139.09L331.14 138.1L328.15 136.31L310.07 125.54C304.24 121.58 299.95 115.88 297.7 109.4C291.11 110.81 283.74 106.38 280.51 98.6702C276.95 90.1402 279.76 80.8402 286.82 77.8902C288.91 77.0102 291.14 76.7902 293.33 77.1402C293 75.1502 292.82 73.1202 292.82 71.0402C292.82 50.5802 309.4 33.9902 329.87 33.9902C350.34 33.9902 366.92 50.5702 366.92 71.0402C366.92 71.7102 366.9 72.3702 366.87 73.0302L366.92 73.0102C370.28 77.5802 372.1 83.1102 372.1 88.7802L372.09 88.7902Z" fill="#757777"/>
<path d="M334.08 28.9004C334.08 41.1604 328.8 52.2604 320.25 60.3004C311.71 68.3404 299.91 73.3104 286.87 73.3104C286.87 48.7804 308 28.9004 334.07 28.9004H334.08Z" fill="#7B7D7D"/>
<path d="M357.85 110.86V113.92C357.85 115.92 356.37 117.59 354.39 117.87C353.65 117.97 352.76 118.03 351.67 118.03C346.16 118.03 342.41 117.96 336.93 112.19L347.55 106.74C347.55 106.74 350.7 105.61 352 108C352 108 353.49 106.47 355.38 106.47C357.27 106.47 357.84 107.86 357.84 110.85L357.85 110.86Z" fill="#545555"/>
<path d="M350.28 102.67L337.06 102.64L337.43 100.57C337.43 97.0702 340.35 94.7002 343.52 94.7002L347.97 77.4102L354.6 97.5102C355.45 98.9002 353.25 102.92 350.28 102.67Z" fill="#626464"/>
<path d="M298.668 103.982C299.444 100.676 297.394 97.3654 294.087 96.5887C290.78 95.8119 287.47 97.8627 286.694 101.169C285.917 104.476 287.968 107.786 291.274 108.563C294.581 109.339 297.891 107.289 298.668 103.982Z" fill="#101112"/>
<path d="M285.06 69.1297C285.06 69.1297 317.51 63.4296 337.43 24.6396L285.06 69.1297Z" fill="#323334"/>
<path d="M331.52 28.9004C331.52 28.9004 341.05 50.2804 373.29 57.2004L331.52 28.9004Z" fill="#323334"/>
<path d="M332.88 25.4102C332.88 25.4102 342.41 46.7902 374.65 53.7102L332.88 25.4102Z" fill="#323334"/>
<path d="M282.4 60.2399C282.4 60.2399 310.04 55.6799 327.01 24.6299L282.4 60.2399Z" fill="#323334"/>
<mask id="mask1_176_168" style="mask-type:luminance" maskUnits="userSpaceOnUse" x="353" y="143" width="91" height="208">
<path d="M443.73 351H376.57L357.04 179.07L353.67 143C355.88 148.98 359.55 154.08 365.4 156.7L398.72 171.59C411.43 177.27 421.43 188.05 426.48 201.52L443.74 351H443.73Z" fill="white"/>
</mask>
<g mask="url(#mask1_176_168)">
<path d="M468.57 50.75H345.479V379.88H468.57V50.75Z" fill="#8E5F83"/>
</g>
<path d="M287.386 69.1296L286.885 70.9727L310.584 77.4162L311.086 75.5731L287.386 69.1296Z" stroke="#101112" stroke-width="4" stroke-miterlimit="10"/>
<path d="M352.401 74.5898H342.391V76.4998H352.401V74.5898Z" fill="#101112"/>
<path d="M326.771 93.4202C336.645 93.4202 344.651 85.415 344.651 75.5402C344.651 65.6653 336.645 57.6602 326.771 57.6602C316.896 57.6602 308.891 65.6653 308.891 75.5402C308.891 85.415 316.896 93.4202 326.771 93.4202Z" fill="#101112"/>
<mask id="mask2_176_168" style="mask-type:luminance" maskUnits="userSpaceOnUse" x="308" y="57" width="37" height="37">
<path d="M326.771 93.4202C336.645 93.4202 344.651 85.415 344.651 75.5402C344.651 65.6653 336.645 57.6602 326.771 57.6602C316.896 57.6602 308.891 65.6653 308.891 75.5402C308.891 85.415 316.896 93.4202 326.771 93.4202Z" fill="white"/>
</mask>
<g mask="url(#mask2_176_168)">
<path d="M367.961 54.1406L320.601 101.521H324.231L371.591 54.1406H367.961Z" fill="#101112"/>
<path d="M360.7 54.1406L313.33 101.521H316.96L364.33 54.1406H360.7Z" fill="#101112"/>
<path d="M353.43 54.1406L306.07 101.521H309.7L357.06 54.1406H353.43Z" fill="#101112"/>
<path d="M346.171 54.1406L298.811 101.521H302.441L349.801 54.1406H346.171Z" fill="#101112"/>
<path d="M338.911 54.1504L291.551 101.52H295.181L342.541 54.1504H338.911Z" fill="#101112"/>
<path d="M331.65 54.1406L284.28 101.521H287.91L335.28 54.1406H331.65Z" fill="#101112"/>
<path d="M324.381 54.1504L277.021 101.52H280.651L328.011 54.1504H324.381Z" fill="#101112"/>
</g>
<path d="M368.021 93.4202C377.895 93.4202 385.901 85.415 385.901 75.5402C385.901 65.6653 377.895 57.6602 368.021 57.6602C358.146 57.6602 350.141 65.6653 350.141 75.5402C350.141 85.415 358.146 93.4202 368.021 93.4202Z" fill="#101112"/>
<path d="M378.601 76.3105C379.451 76.3105 380.141 75.621 380.141 74.7705C380.141 73.92 379.451 73.2305 378.601 73.2305C377.75 73.2305 377.061 73.92 377.061 74.7705C377.061 75.621 377.75 76.3105 378.601 76.3105Z" fill="#101112"/>
<path d="M378.601 70.1601C379.451 70.1601 380.141 69.4706 380.141 68.6201C380.141 67.7696 379.451 67.0801 378.601 67.0801C377.75 67.0801 377.061 67.7696 377.061 68.6201C377.061 69.4706 377.75 70.1601 378.601 70.1601Z" fill="#101112"/>
<path d="M372.44 76.3105C373.291 76.3105 373.98 75.621 373.98 74.7705C373.98 73.92 373.291 73.2305 372.44 73.2305C371.59 73.2305 370.9 73.92 370.9 74.7705C370.9 75.621 371.59 76.3105 372.44 76.3105Z" fill="#101112"/>
<path d="M372.44 70.1601C373.291 70.1601 373.98 69.4706 373.98 68.6201C373.98 67.7696 373.291 67.0801 372.44 67.0801C371.59 67.0801 370.9 67.7696 370.9 68.6201C370.9 69.4706 371.59 70.1601 372.44 70.1601Z" fill="#101112"/>
<path d="M378.601 87.9999C379.451 87.9999 380.141 87.3104 380.141 86.4599C380.141 85.6094 379.451 84.9199 378.601 84.9199C377.75 84.9199 377.061 85.6094 377.061 86.4599C377.061 87.3104 377.75 87.9999 378.601 87.9999Z" fill="#101112"/>
<path d="M378.601 81.8398C379.451 81.8398 380.141 81.1503 380.141 80.2998C380.141 79.4493 379.451 78.7598 378.601 78.7598C377.75 78.7598 377.061 79.4493 377.061 80.2998C377.061 81.1503 377.75 81.8398 378.601 81.8398Z" fill="#101112"/>
<path d="M372.44 87.9999C371.59 87.9999 370.9 87.3099 370.9 86.4599C370.9 85.6099 371.59 84.9199 372.44 84.9199C373.29 84.9199 373.98 85.6099 373.98 86.4599C373.98 87.3099 373.29 87.9999 372.44 87.9999Z" fill="#101112"/>
<path d="M372.44 81.8398C371.59 81.8398 370.9 81.1498 370.9 80.2998C370.9 79.4498 371.59 78.7598 372.44 78.7598C373.29 78.7598 373.98 79.4498 373.98 80.2998C373.98 81.1498 373.29 81.8398 372.44 81.8398Z" fill="#101112"/>
<path d="M366.28 87.9999C365.43 87.9999 364.74 87.3099 364.74 86.4599C364.74 85.6099 365.43 84.9199 366.28 84.9199C367.13 84.9199 367.82 85.6099 367.82 86.4599C367.82 87.3099 367.13 87.9999 366.28 87.9999Z" fill="#101112"/>
<path d="M366.28 81.8398C365.43 81.8398 364.74 81.1498 364.74 80.2998C364.74 79.4498 365.43 78.7598 366.28 78.7598C367.13 78.7598 367.82 79.4498 367.82 80.2998C367.82 81.1498 367.13 81.8398 366.28 81.8398Z" fill="#101112"/>
<path d="M327.01 94.6999C337.167 94.6999 345.4 86.4664 345.4 76.3099C345.4 66.1534 337.167 57.9199 327.01 57.9199C316.854 57.9199 308.62 66.1534 308.62 76.3099C308.62 86.4664 316.854 94.6999 327.01 94.6999Z" stroke="#101112" stroke-width="4" stroke-miterlimit="10"/>
<path d="M367.821 94.6999C377.977 94.6999 386.211 86.4664 386.211 76.3099C386.211 66.1534 377.977 57.9199 367.821 57.9199C357.664 57.9199 349.431 66.1534 349.431 76.3099C349.431 86.4664 357.664 94.6999 367.821 94.6999Z" stroke="#101112" stroke-width="4" stroke-miterlimit="10"/>
<path d="M295.9 105.79H295.76C294.13 105.79 292.76 104.57 292.57 102.95C292.57 102.88 292.56 102.8 292.55 102.73C292.55 102.69 292.55 102.63 292.55 102.58C292.55 102.46 292.55 102.34 292.57 102.2C292.76 100.58 294.13 99.3604 295.76 99.3604H295.89V99.4903C295.89 101.04 294.79 102.36 293.3 102.65C294.73 102.93 295.82 104.18 295.89 105.65V105.79H295.9ZM292.83 102.86C292.83 102.86 292.83 102.9 292.83 102.93C293 104.36 294.18 105.46 295.61 105.53C295.48 104.15 294.37 103.03 292.98 102.88L292.82 102.86H292.83ZM295.63 99.6303C294.2 99.7003 293.01 100.79 292.84 102.23C292.83 102.35 292.82 102.46 292.82 102.58C292.82 102.62 292.82 102.67 292.82 102.71C292.82 102.73 292.82 102.76 292.82 102.78L292.88 102.67C292.88 102.67 292.9 102.62 292.9 102.58L292.85 102.44L293.01 102.42C294.45 102.25 295.55 101.06 295.61 99.6303H295.63Z" fill="#7B7D7D"/>
<path d="M295.9 105.79H295.76C294.32 105.79 293.08 104.83 292.68 103.49C292.28 104.83 291.04 105.78 289.6 105.79H289.46V105.65C289.53 104.08 290.77 102.77 292.34 102.6C292.57 102.58 292.81 102.58 293.01 102.6C294.58 102.76 295.81 104.07 295.89 105.65V105.79H295.9ZM292.53 102.86C292.47 102.86 292.42 102.86 292.37 102.87C290.98 103.02 289.88 104.14 289.74 105.52C291.17 105.45 292.35 104.35 292.52 102.92V102.86H292.53ZM292.83 102.86V102.92C293 104.35 294.19 105.45 295.62 105.52C295.49 104.14 294.38 103.02 292.99 102.87C292.94 102.87 292.89 102.87 292.83 102.86Z" fill="#7B7D7D"/>
<path d="M292.68 102.71C292.56 102.71 292.44 102.71 292.31 102.69C290.69 102.5 289.47 101.13 289.47 99.4903V99.3604H289.6C291.04 99.3604 292.29 100.32 292.68 101.66C293.08 100.32 294.32 99.3604 295.76 99.3604H295.89V99.4903C295.89 101.12 294.67 102.5 293.05 102.69C292.92 102.7 292.79 102.71 292.68 102.71ZM289.73 99.6303C289.8 101.07 290.89 102.26 292.33 102.42C292.57 102.45 292.78 102.45 293.02 102.42C294.46 102.25 295.56 101.06 295.62 99.6303C294.19 99.7003 293 100.79 292.83 102.23L292.81 102.39L292.68 102.35L292.55 102.39L292.53 102.23C292.36 100.79 291.17 99.6903 289.74 99.6303H289.73Z" fill="#7B7D7D"/>
<path d="M289.46 105.79V105.65C289.53 104.17 290.63 102.93 292.06 102.65C290.56 102.36 289.47 101.04 289.47 99.4903V99.3604H289.6C291.23 99.3604 292.61 100.58 292.8 102.2C292.81 102.33 292.82 102.46 292.82 102.58C292.82 102.63 292.82 102.69 292.82 102.74C292.82 102.81 292.82 102.88 292.8 102.95C292.61 104.57 291.24 105.79 289.61 105.79H289.47H289.46ZM292.53 102.86L292.37 102.88C290.98 103.03 289.88 104.15 289.74 105.53C291.17 105.46 292.35 104.36 292.52 102.93C292.52 102.91 292.52 102.89 292.52 102.87L292.53 102.86ZM292.45 102.59C292.45 102.59 292.45 102.65 292.47 102.68L292.53 102.8C292.53 102.8 292.53 102.75 292.53 102.73C292.53 102.68 292.53 102.63 292.53 102.59C292.53 102.48 292.53 102.36 292.51 102.24C292.34 100.8 291.15 99.7104 289.72 99.6404C289.79 101.08 290.88 102.27 292.32 102.43L292.48 102.45L292.43 102.59H292.45Z" fill="#7B7D7D"/>
<path d="M297.38 102.61L297.28 102.71C296.13 103.86 294.29 103.97 293.02 102.96C292.96 102.91 292.91 102.87 292.85 102.81C292.82 102.78 292.78 102.75 292.74 102.71C292.65 102.62 292.57 102.53 292.49 102.43C291.48 101.15 291.59 99.3103 292.74 98.1603L292.83 98.0703L292.92 98.1603C294.02 99.2603 294.17 100.96 293.32 102.23C294.53 101.42 296.18 101.53 297.27 102.52L297.37 102.61H297.38ZM293.13 102.7C293.13 102.7 293.16 102.73 293.18 102.74C294.31 103.64 295.92 103.57 296.98 102.61C295.91 101.73 294.33 101.72 293.25 102.59L293.13 102.69V102.7ZM292.83 98.4403C291.86 99.5003 291.8 101.12 292.7 102.25C292.78 102.34 292.85 102.43 292.93 102.51C292.96 102.54 292.99 102.57 293.03 102.6C293.05 102.62 293.07 102.63 293.08 102.65L293.05 102.53C293.05 102.53 293.03 102.48 293.01 102.45L292.87 102.38L292.97 102.25C293.87 101.11 293.8 99.5003 292.83 98.4303V98.4403Z" fill="#7B7D7D"/>
<path d="M297.38 102.611L297.28 102.711C296.26 103.731 294.71 103.931 293.48 103.261C294.14 104.491 293.94 106.04 292.93 107.06L292.83 107.161L292.74 107.06C291.68 105.9 291.63 104.101 292.62 102.871C292.77 102.691 292.93 102.531 293.09 102.401C294.31 101.411 296.11 101.46 297.28 102.52L297.38 102.611ZM292.93 102.911C292.93 102.911 292.86 102.991 292.82 103.031C291.94 104.111 291.96 105.691 292.84 106.761C293.8 105.701 293.86 104.09 292.97 102.95L292.93 102.901V102.911ZM293.14 102.711L293.19 102.751C294.32 103.651 295.93 103.581 296.99 102.621C295.92 101.741 294.34 101.731 293.26 102.601C293.22 102.631 293.18 102.67 293.14 102.7V102.711Z" fill="#7B7D7D"/>
<path d="M292.93 102.7C292.85 102.78 292.75 102.87 292.65 102.95C291.37 103.96 289.53 103.86 288.38 102.7L288.29 102.61L288.38 102.52C289.4 101.5 290.95 101.3 292.19 101.96C291.52 100.73 291.73 99.1803 292.74 98.1603L292.83 98.0703L292.92 98.1603C294.08 99.3203 294.18 101.15 293.17 102.43C293.09 102.53 293 102.63 292.92 102.71L292.93 102.7ZM288.66 102.61C289.72 103.58 291.34 103.64 292.48 102.74C292.67 102.59 292.81 102.44 292.97 102.25C293.87 101.11 293.8 99.5003 292.83 98.4403C291.86 99.5003 291.8 101.12 292.7 102.25L292.8 102.38L292.67 102.44L292.61 102.57L292.48 102.47C291.34 101.57 289.73 101.64 288.66 102.61Z" fill="#7B7D7D"/>
<path d="M292.83 107.16L292.74 107.06C291.75 105.97 291.64 104.32 292.45 103.11C291.19 103.96 289.48 103.81 288.38 102.71L288.29 102.62L288.38 102.53C289.53 101.38 291.37 101.27 292.65 102.28C292.75 102.36 292.85 102.45 292.93 102.53C292.97 102.57 293.01 102.61 293.04 102.65C293.09 102.7 293.13 102.75 293.18 102.81C294.19 104.09 294.08 105.92 292.93 107.08L292.83 107.18V107.16ZM292.92 102.91L292.82 103.04C291.94 104.12 291.96 105.7 292.84 106.77C293.8 105.71 293.86 104.1 292.97 102.96C292.96 102.94 292.94 102.93 292.93 102.91H292.92ZM292.68 102.78C292.68 102.78 292.73 102.82 292.76 102.83L292.89 102.87C292.89 102.87 292.86 102.83 292.84 102.81C292.81 102.77 292.77 102.74 292.74 102.71C292.66 102.63 292.58 102.56 292.48 102.48C291.34 101.58 289.73 101.65 288.67 102.62C289.73 103.59 291.35 103.65 292.49 102.75L292.62 102.65L292.69 102.78H292.68Z" fill="#7B7D7D"/>
</g>
<defs>
<filter id="filter0_d_176_168" x="0" y="0" width="418" height="418" filterUnits="userSpaceOnUse" color-interpolation-filters="sRGB">
<feFlood flood-opacity="0" result="BackgroundImageFix"/>
<feColorMatrix in="SourceAlpha" type="matrix" values="0 0 0 0 0 0 0 0 0 0 0 0 0 0 0 0 0 0 127 0" result="hardAlpha"/>
<feMorphology radius="6" operator="erode" in="SourceAlpha" result="effect1_dropShadow_176_168"/>
<feOffset dx="-28" dy="18"/>
<feGaussianBlur stdDeviation="28"/>
<feComposite in2="hardAlpha" operator="out"/>
<feColorMatrix type="matrix" values="0 0 0 0 0.918012 0 0 0 0 0.575033 0 0 0 0 0.842557 0 0 0 0.68 0"/>
<feBlend mode="normal" in2="BackgroundImageFix" result="effect1_dropShadow_176_168"/>
<feBlend mode="normal" in="SourceGraphic" in2="effect1_dropShadow_176_168" result="shape"/>
</filter>
<clipPath id="clip0_176_168">
<rect width="291.56" height="395.45" fill="white" transform="translate(177 16)"/>
</clipPath>
</defs>
</svg>
